<svg xmlns="http://www.w3.org/2000/svg" viewBox="0 0 1566.93 792"><title>casa4 logo</title><g id="_4" data-name="4"><polygon points="1080.02 511.15 1080.02 451.77 933.12 451.77 933.12 398.65 1059.32 228.91 1141.12 228.91 1141.12 288.97 1079.26 288.97 1002.7 398.99 1080.02 398.99 1080.02 346.25 1141.12 346.25 1141.12 398.99 1187.14 398.99 1187.14 451.77 1141.12 451.77 1141.12 511.15 1080.02 511.15"/><path d="M1140.62,229.41v59.06H1079l-.3.43-75.86,109-1.09,1.57h78.78V346.75h60.1v52.74h46v51.78h-46v59.38h-60.1V451.27H933.62V398.82l125.94-169.41h81.05m1-1h-82.56L932.62,398.49v53.78h146.9v59.38h62.1V452.27h46V398.49h-46V345.75h-62.1v52.74h-75.86l75.86-109h62.1V228.41Z"/><rect x="317.33" y="289.73" width="62.1" height="56.28"/><path d="M474,444.14a47.73,47.73,0,0,1-18.72-18.53,56.36,56.36,0,0,1,0-53.64A48,48,0,0,1,474,353.54a55,55,0,0,1,27.06-6.6,52.43,52.43,0,0,1,23.57,5.14,39.16,39.16,0,0,1,16.39,15l-10.28,7a32.19,32.19,0,0,0-12.8-11.35A38,38,0,0,0,501,359a40,40,0,0,0-19.88,4.95A34.76,34.76,0,0,0,467.37,378a46.23,46.23,0,0,0,0,41.61,34.91,34.91,0,0,0,13.77,14A40,40,0,0,0,501,438.52a38.82,38.82,0,0,0,16.88-3.69,31.45,31.45,0,0,0,12.8-11.25l10.28,7a39,39,0,0,1-16.49,15A52.55,52.55,0,0,1,501,450.74,55,55,0,0,1,474,444.14Z"/><path d="M634.3,356.94q10.67,10,10.67,29.58v63.24H631.78V433.86a31.57,31.57,0,0,1-13.68,12.42q-9,4.46-21.44,4.46-17.07,0-27.16-8.15t-10.09-21.53q0-13,9.41-21t30-8h32.4v-6.21q0-13.19-7.37-20.08T602.29,359a54.73,54.73,0,0,0-18.62,3.2A46.94,46.94,0,0,0,568.34,371l-6.21-10.28a55.1,55.1,0,0,1,18.62-10.19,72.52,72.52,0,0,1,22.89-3.59Q623.63,346.95,634.3,356.94Zm-15.52,77.6a31.86,31.86,0,0,0,12.42-15.42V402.43h-32q-26.19,0-26.19,18.24a16.68,16.68,0,0,0,6.79,14.06q6.79,5.14,19,5.14Q610.44,439.87,618.78,434.54Z"/><path d="M686,447.15q-11.35-3.59-17.75-9l6.21-10.86a52.21,52.21,0,0,0,16.1,8.25,64,64,0,0,0,20.18,3.2q14,0,20.66-4.37A13.89,13.89,0,0,0,738.09,422a11.09,11.09,0,0,0-3.69-8.83,24.52,24.52,0,0,0-9.31-4.85,133.81,133.81,0,0,0-14.94-3.2,170.66,170.66,0,0,1-20-4.75,29.34,29.34,0,0,1-12.9-8.25q-5.34-5.82-5.33-16.1,0-12.8,10.67-21t29.68-8.15a77,77,0,0,1,19.79,2.62,54.51,54.51,0,0,1,16.3,6.89l-6,11.06q-12.61-8.73-30.07-8.73-13.2,0-19.88,4.66t-6.69,12.22a12.06,12.06,0,0,0,3.78,9.31,23.22,23.22,0,0,0,9.41,5.14,151.39,151.39,0,0,0,15.52,3.4A178.34,178.34,0,0,1,734,398.16a28.8,28.8,0,0,1,12.61,8q5.24,5.63,5.24,15.52,0,13.39-11.16,21.24t-30.94,7.86A78.28,78.28,0,0,1,686,447.15Z"/><path d="M843.63,356.94q10.67,10,10.67,29.58v63.24H841.1V433.86a31.57,31.57,0,0,1-13.68,12.42q-9,4.46-21.44,4.46-17.07,0-27.16-8.15t-10.09-21.53q0-13,9.41-21t30-8h32.4v-6.21q0-13.19-7.37-20.08T811.62,359a54.73,54.73,0,0,0-18.62,3.2A46.94,46.94,0,0,0,777.67,371l-6.21-10.28a55.1,55.1,0,0,1,18.62-10.19A72.52,72.52,0,0,1,813,346.95Q833,346.95,843.63,356.94Zm-15.52,77.6a31.86,31.86,0,0,0,12.42-15.42V402.43h-32q-26.19,0-26.19,18.24a16.68,16.68,0,0,0,6.79,14.06q6.79,5.14,19,5.14Q819.76,439.87,828.11,434.54Z"/></g></svg>